<svg width="185" height="186" viewBox="0 0 185 186" fill="none" xmlns="http://www.w3.org/2000/svg">
<g id="Capa_1" clip-path="url(#clip0_883_1285)">
<path id="Vector" d="M165.752 107.794C163.059 113.694 159.995 119.651 156.529 125.523C153.207 131.108 149.512 136.665 145.387 142.05C132.441 158.92 115.284 174.329 92.5137 185.528V162.958C105.804 155.168 117.518 145.172 127.486 133.113C128.546 131.824 129.577 130.535 130.579 129.189C133.587 125.265 136.422 121.141 139.057 116.787C142.466 111.231 145.616 105.33 148.452 99.1436L155.756 102.781L165.78 107.794H165.752Z" fill="url(#paint0_linear_883_1285)"/>
<path id="Vector_2" d="M159.364 68.4102C158.447 71.8759 157.387 75.4561 156.213 79.1223L147.076 74.5396L159.364 68.4102Z" fill="url(#paint1_linear_883_1285)"/>
<path id="Vector_3" d="M40.6732 89.7197L35.3458 96.3647C33.7132 92.6126 32.1665 88.7173 30.7344 84.7646C33.3981 86.0822 39.7567 89.2328 40.6732 89.7484V89.7197Z" fill="url(#paint2_linear_883_1285)"/>
<path id="Vector_4" d="M42.5623 46.4709C42.5623 46.4709 42.7915 46.385 42.8774 46.3563L19.8204 34.8135L0.0859266 24.9893C0.0859266 24.9893 0.0286422 25.0179 0 25.0465C0 25.0465 0 34.1834 2.06224 48.3327L23.372 58.9876L48.9782 71.7906C45.9707 62.6824 43.9371 54.0325 42.5623 46.4996V46.4709Z" fill="url(#paint3_linear_883_1285)"/>
<path id="Vector_5" d="M92.5142 162.958V185.528C69.7437 174.329 52.587 158.92 39.6407 142.049C35.5163 136.665 31.7928 131.137 28.4989 125.523C25.0046 119.651 21.9398 113.694 19.2761 107.793C13.7768 95.7064 9.85283 83.7913 7.0459 72.9072L30.3607 84.5646L30.4752 84.6219L30.733 84.7365C32.1651 88.7177 33.6832 92.5844 35.3444 96.3652C35.7454 97.3104 36.175 98.2269 36.576 99.1435C39.4116 105.33 42.5336 111.23 45.9707 116.787C48.6344 121.112 51.47 125.237 54.4487 129.189C55.4512 130.507 56.511 131.824 57.5421 133.113C65.2182 142.422 73.9255 150.499 83.6352 157.287C86.4994 159.292 89.4782 161.182 92.5142 162.958Z" fill="url(#paint4_linear_883_1285)"/>
<path id="Vector_6" d="M138.427 94.1316L136.966 93.4155L129.061 89.4629C127.371 93.1291 125.538 96.6807 123.59 100.089C122.244 102.466 120.841 104.758 119.38 106.992L129.004 111.804L139.028 116.816C142.437 111.26 145.587 105.359 148.423 99.1726L138.398 94.1602L138.427 94.1316Z" fill="url(#paint5_linear_883_1285)"/>
<path id="Vector_7" d="M92.2289 0.5V18.1722C89.6225 18.2009 70.6327 18.7451 47.6903 24.8745C38.7539 27.2518 29.216 30.4884 19.8214 34.842L0.0869141 24.9891C8.24994 20.3204 16.6708 16.5396 24.8911 13.5036C58.1733 1.15877 88.935 0.528642 92.2289 0.5Z" fill="url(#paint6_linear_883_1285)"/>
<path id="Vector_8" d="M184.915 24.9891L165.209 34.842C145.36 25.6192 124.909 21.4947 110.789 19.6616C99.9906 18.2582 92.8586 18.1722 92.5149 18.1722C92.4863 18.1722 92.3717 18.1722 92.2285 18.1722V0.500004C92.4004 0.500004 92.5149 0.500004 92.5149 0.500004C92.5149 0.500004 141.894 0.41408 184.915 24.9891Z" fill="url(#paint7_linear_883_1285)"/>
<path id="Vector_9" d="M185.001 25.0459C185.001 25.0459 185.001 34.1828 182.938 48.332C181.907 55.4353 180.332 63.7988 177.983 72.907C176.752 77.6903 175.291 82.674 173.572 87.801L160.855 81.4424L156.187 79.0937C157.361 75.4275 158.421 71.8473 159.337 68.3815C160.196 65.145 160.941 61.9943 161.6 58.9583C163.662 49.3918 164.808 41.0855 165.409 34.9275C165.323 34.8988 165.237 34.8415 165.18 34.8129L184.886 24.96C184.886 24.96 184.943 24.9886 184.972 25.0172L185.001 25.0459Z" fill="url(#paint8_linear_883_1285)"/>
<path id="Vector_10" d="M92.5155 37.3057V52.0278C90.2241 52.1137 77.8507 52.6292 62.5271 56.1809C62.3839 56.2095 62.2407 56.2382 62.0688 56.2954L42.5635 46.4998C42.5635 46.4998 42.7926 46.4139 42.8785 46.3852C54.9656 42.3181 66.5943 40.0553 75.5593 38.8237C84.9253 37.5348 91.3984 37.3343 92.4868 37.3057H92.5155Z" fill="url(#paint9_linear_883_1285)"/>
<path id="Vector_11" d="M92.5129 112.491V136.092C87.3 132.168 82.4308 127.757 77.934 122.888C75.528 120.282 73.2367 117.561 71.0599 114.696C69.1695 112.205 67.3364 109.627 65.5892 106.963C64.1284 104.729 62.725 102.438 61.3788 100.06C59.4311 96.6518 57.6267 93.1002 55.9081 89.434C53.5595 84.3643 51.4399 79.0655 49.5496 73.5376C49.3491 72.9361 49.1486 72.3633 48.9481 71.7618C45.9406 62.6535 43.9071 54.0036 42.5322 46.4707L62.0376 56.2663C62.9828 59.7034 64.0139 63.1118 65.1309 66.4057C66.964 71.7618 69.0263 76.8887 71.3176 81.7006L72.091 83.3046C74.8693 88.9471 77.934 94.2173 81.3138 99.0578C82.2303 100.375 83.1469 101.636 84.1207 102.896C86.7272 106.304 89.5054 109.484 92.4842 112.462L92.5129 112.491Z" fill="url(#paint10_linear_883_1285)"/>
<path id="Vector_12" d="M129.063 89.4635C127.373 93.1297 125.54 96.6814 123.592 100.09C122.246 102.467 120.842 104.758 119.382 106.993C117.635 109.685 115.83 112.263 113.911 114.726C111.734 117.59 109.443 120.311 107.037 122.918C102.54 127.787 97.6709 132.198 92.458 136.122V112.521C95.4368 109.542 98.2151 106.334 100.822 102.954C101.767 101.722 102.712 100.434 103.628 99.116C107.008 94.2754 110.073 89.0053 112.851 83.3628L113.596 81.7588L129.063 89.4635Z" fill="url(#paint11_linear_883_1285)"/>
<path id="Vector_13" d="M142.466 46.471C141.206 53.3452 139.402 61.1645 136.795 69.4134L121.386 61.7087C121.93 59.9329 122.446 58.1284 122.961 56.2953C122.932 56.2953 122.875 56.2953 122.846 56.2953L142.295 46.4424C142.295 46.4424 142.409 46.471 142.466 46.4997V46.471Z" fill="url(#paint12_linear_883_1285)"/>
<path id="Vector_14" d="M142.294 46.4429L122.846 56.2958C122.846 56.2958 122.617 56.2385 122.502 56.2099C115.427 54.5773 109.012 53.6034 103.885 53.0019C97.8984 52.2859 93.7453 52.114 92.5137 52.0854V37.3633C94.6618 37.4206 117.432 38.0793 142.151 46.4142C142.151 46.4142 142.265 46.4429 142.294 46.4715V46.4429Z" fill="url(#paint13_linear_883_1285)"/>
<path id="Vector_15" d="M103.227 65.8049C97.6414 64.7737 93.4023 64.6019 92.4858 64.5732C92.3999 64.5732 92.3139 64.5732 92.1994 64.5732C90.8818 64.6305 86.9006 64.8597 81.7736 65.8049C80.5706 66.034 79.2817 66.2918 77.9355 66.6068C78.3938 68.2681 78.8807 69.872 79.4249 71.4474C80.0551 73.2518 80.7138 74.999 81.4585 76.6889C83.4349 81.243 85.7835 85.3388 88.5045 88.8905C89.6502 90.4085 90.8818 91.8406 92.1994 93.1868C92.2853 93.2727 92.3999 93.3873 92.4858 93.4732C93.9179 92.0411 95.2354 90.5231 96.4671 88.8905C99.1881 85.3388 101.565 81.243 103.513 76.6889C104.229 74.999 104.917 73.2518 105.547 71.4474C106.091 69.872 106.578 68.2394 107.036 66.6068C105.718 66.2918 104.43 66.034 103.198 65.8049H103.227Z" fill="#FC4554"/>
</g>
<defs>
<linearGradient id="paint0_linear_883_1285" x1="92.5137" y1="142.336" x2="165.752" y2="142.336" gradientUnits="userSpaceOnUse">
<stop stop-color="#FC4554"/>
<stop offset="1" stop-color="#FD7F56"/>
</linearGradient>
<linearGradient id="paint1_linear_883_1285" x1="147.076" y1="73.7663" x2="159.364" y2="73.7663" gradientUnits="userSpaceOnUse">
<stop offset="0.06" stop-color="#FC4554"/>
<stop offset="1" stop-color="#D6274F"/>
</linearGradient>
<linearGradient id="paint2_linear_883_1285" x1="30.7344" y1="90.5504" x2="40.6732" y2="90.5504" gradientUnits="userSpaceOnUse">
<stop offset="0.06" stop-color="#FC4554"/>
<stop offset="1" stop-color="#D6274F"/>
</linearGradient>
<linearGradient id="paint3_linear_883_1285" x1="0" y1="48.3899" x2="48.9782" y2="48.3899" gradientUnits="userSpaceOnUse">
<stop stop-color="#FC8055"/>
<stop offset="0.95" stop-color="#FFD464"/>
</linearGradient>
<linearGradient id="paint4_linear_883_1285" x1="7.0459" y1="129.218" x2="92.5142" y2="129.218" gradientUnits="userSpaceOnUse">
<stop offset="0.05" stop-color="#FFD464"/>
<stop offset="0.6" stop-color="#FC8456"/>
<stop offset="1" stop-color="#FD6B55"/>
</linearGradient>
<linearGradient id="paint5_linear_883_1285" x1="119.409" y1="103.125" x2="148.452" y2="103.125" gradientUnits="userSpaceOnUse">
<stop offset="0.06" stop-color="#FC4554"/>
<stop offset="1" stop-color="#D6274F"/>
</linearGradient>
<linearGradient id="paint6_linear_883_1285" x1="0.0869141" y1="17.6853" x2="92.2289" y2="17.6853" gradientUnits="userSpaceOnUse">
<stop offset="0.05" stop-color="#FFD464"/>
<stop offset="0.54" stop-color="#FC8456"/>
<stop offset="1" stop-color="#FD6B55"/>
</linearGradient>
<linearGradient id="paint7_linear_883_1285" x1="92.2285" y1="17.6853" x2="184.915" y2="17.6853" gradientUnits="userSpaceOnUse">
<stop stop-color="#FC4554"/>
<stop offset="1" stop-color="#FD7F56"/>
</linearGradient>
<linearGradient id="paint8_linear_883_1285" x1="156.215" y1="56.4091" x2="185.001" y2="56.4091" gradientUnits="userSpaceOnUse">
<stop offset="0.06" stop-color="#FC4554"/>
<stop offset="1" stop-color="#D6274F"/>
</linearGradient>
<linearGradient id="paint9_linear_883_1285" x1="42.5635" y1="46.8149" x2="92.5155" y2="46.8149" gradientUnits="userSpaceOnUse">
<stop stop-color="#610CF4"/>
<stop offset="0.74" stop-color="#9142F0"/>
<stop offset="0.99" stop-color="#A256EF"/>
</linearGradient>
<linearGradient id="paint10_linear_883_1285" x1="42.5609" y1="91.2958" x2="92.5129" y2="91.2958" gradientUnits="userSpaceOnUse">
<stop offset="0.01" stop-color="#A256EF"/>
<stop offset="0.26" stop-color="#9142F0"/>
<stop offset="1" stop-color="#610CF4"/>
</linearGradient>
<linearGradient id="paint11_linear_883_1285" x1="92.5153" y1="108.94" x2="129.063" y2="108.94" gradientUnits="userSpaceOnUse">
<stop stop-color="#600CF2"/>
<stop offset="0.08" stop-color="#610CF4"/>
<stop offset="1" stop-color="#510ACC"/>
</linearGradient>
<linearGradient id="paint12_linear_883_1285" x1="121.386" y1="57.9279" x2="142.466" y2="57.9279" gradientUnits="userSpaceOnUse">
<stop offset="0.08" stop-color="#610CF4"/>
<stop offset="0.91" stop-color="#510ACC"/>
</linearGradient>
<linearGradient id="paint13_linear_883_1285" x1="92.5137" y1="46.7866" x2="142.294" y2="46.7866" gradientUnits="userSpaceOnUse">
<stop offset="0.08" stop-color="#610CF4"/>
<stop offset="0.91" stop-color="#510ACC"/>
</linearGradient>
<clipPath id="clip0_883_1285">
<rect width="185" height="185" fill="white" transform="translate(0 0.5)"/>
</clipPath>
</defs>
</svg>
