<svg width="61" height="50" viewBox="0 0 61 50" fill="none" xmlns="http://www.w3.org/2000/svg">
<g id="Group">
<g id="Group_2">
<path id="Vector" d="M44.5907 25.5996C46.6097 24.8258 47.7774 22.5746 47.3132 20.4923C46.8277 18.3115 44.9706 16.8905 42.6772 16.9397C40.6301 16.9819 38.7658 18.621 38.4282 20.6541C38.0764 22.8208 39.2724 24.9102 41.3406 25.6699C41.7486 25.8177 41.8401 26.0287 41.833 26.4297C41.8119 27.6819 41.826 28.9411 41.826 30.1933C41.826 31.537 41.8119 32.8806 41.833 34.2172C41.8471 34.9981 42.2481 35.4694 42.839 35.5046C43.4088 35.5398 43.8168 35.1529 43.9294 34.379C43.9786 34.0484 44.0842 33.9358 44.4148 33.9499C44.8932 33.971 45.3645 33.971 45.8429 33.9499C46.476 33.9218 46.9473 33.4575 46.9333 32.8947C46.9192 32.353 46.469 31.9169 45.864 31.8817C45.456 31.8606 45.0409 31.8395 44.6329 31.8817C44.0842 31.938 43.9505 31.7339 43.9435 31.1993C43.9364 30.6224 44.1615 30.5029 44.6681 30.538C45.1183 30.5662 45.5826 30.5662 46.0258 30.5029C46.6026 30.4255 46.9825 29.926 46.9403 29.4195C46.8981 28.8778 46.4901 28.505 45.8921 28.4768C45.5052 28.4557 45.1113 28.4417 44.7243 28.4768C44.1545 28.5331 43.8731 28.3713 43.9575 27.7382C44.0068 27.3583 43.9927 26.9573 43.9575 26.5704C43.9083 26.0498 44.0701 25.7895 44.5977 25.5855L44.5907 25.5996ZM42.9586 23.862C41.5587 23.8901 40.4683 22.8419 40.4542 21.4631C40.4401 20.0984 41.4742 19.0361 42.839 19.008C44.1897 18.9868 45.2871 20.035 45.3153 21.3717C45.3364 22.7364 44.3022 23.8338 42.9656 23.8549L42.9586 23.862Z" fill="white"/>
<path id="Vector_2" d="M32.7442 41.1039C32.2025 41.0898 31.6608 41.1039 31.1262 41.1039C30.5634 41.1039 30.0006 41.0898 29.4378 41.1039C28.8047 41.125 28.3967 41.526 28.3826 42.1029C28.3615 42.7078 28.7766 43.1581 29.4308 43.1721C30.5353 43.1933 31.6327 43.1933 32.7372 43.1721C33.3844 43.1651 33.8416 42.7149 33.8416 42.138C33.8416 41.5682 33.3844 41.118 32.7372 41.1039H32.7442Z" fill="white"/>
<path id="Vector_3" d="M60.2713 18.0933C58.3649 16.419 56.979 14.3789 56.0856 12.0152C55.8675 11.4384 55.4736 11.1851 54.8756 11.1148C50.099 10.5661 45.3082 10.2706 40.4964 10.4465C39.9688 10.4676 39.8985 10.2706 39.9055 9.82038C39.9266 8.3079 39.9196 6.78837 39.9125 5.27589C39.8985 2.50417 38.2242 0.836914 35.4595 0.836914C30.3522 0.836914 25.2449 0.836914 20.1376 0.836914C14.9882 0.836914 9.83866 0.836914 4.68214 0.836914C1.98077 0.836914 0.285373 2.54638 0.271303 5.26182C0.271303 6.90797 0.271303 8.55411 0.271303 10.1932C0.271303 12.9931 1.57274 14.4845 4.34446 14.8362C4.62586 14.8714 4.71731 14.9558 4.71028 15.2231C4.69621 16.004 4.69621 16.7849 4.71028 17.5587C4.71028 17.8471 4.63289 17.9597 4.31633 17.9948C1.72048 18.234 0.278338 19.838 0.271303 22.4549C0.271303 24.1433 0.271303 25.8316 0.271303 27.52C0.271303 30.1299 1.69937 31.7198 4.31633 31.9871C4.63289 32.0223 4.71731 32.1208 4.71028 32.4162C4.69621 33.176 4.68214 33.9287 4.71028 34.6885C4.72435 35.0754 4.56958 35.1317 4.22487 35.1528C1.98077 35.2935 0.355721 36.9256 0.285373 39.1908C0.229094 41.1605 0.229094 43.1303 0.285373 45.1C0.348686 47.4145 2.08629 49.1521 4.33743 49.1521C14.8334 49.1661 25.3293 49.1661 35.8253 49.1521C38.0131 49.1521 39.7296 47.4708 39.8633 45.297C39.8844 44.889 39.8633 44.4739 39.8914 44.0659C39.8914 43.9041 39.8 43.6931 39.9969 43.6016C40.1517 43.5242 40.2643 43.6931 40.3909 43.7704C40.9326 44.094 41.4813 44.3965 41.9948 44.7483C42.6069 45.1774 43.1556 45.1211 43.7887 44.7483C48.685 41.8992 52.6807 38.1144 55.7198 33.3308C58.393 29.131 60.0321 24.5443 60.7215 19.6199C60.806 19.036 60.7637 18.5295 60.2713 18.0933ZM4.71028 12.775C3.16261 12.775 2.34658 11.966 2.33954 10.4183C2.33954 8.68778 2.33954 6.95721 2.33954 5.22664C2.33954 3.70712 3.14151 2.90515 4.66103 2.90515C9.81052 2.90515 14.953 2.90515 20.1025 2.90515C25.2309 2.90515 30.3522 2.90515 35.4806 2.90515C37.0564 2.90515 37.8162 3.66491 37.8232 5.24775C37.8232 6.80244 37.8091 8.36417 37.8302 9.91887C37.8302 10.348 37.7247 10.5309 37.2674 10.552C35.1922 10.6505 33.131 10.8826 31.0627 11.0867C30.3311 11.157 29.8246 11.4243 29.6417 12.163C29.5291 12.6273 29.2759 12.782 28.7694 12.782C20.7426 12.7609 12.7229 12.768 4.69621 12.768L4.71028 12.775ZM6.79259 15.2864C6.78555 14.9628 6.86997 14.8292 7.22171 14.8292C14.144 14.8362 21.0662 14.8362 27.9815 14.8432C28.0377 14.8432 28.094 14.8784 28.2207 14.9206C27.5172 16.0532 26.673 17.017 25.7233 17.8893C25.5756 18.023 25.3927 17.9737 25.2309 17.9737C19.2653 17.9737 13.2928 17.9737 7.3202 17.9808C6.94735 17.9808 6.77148 17.9104 6.79259 17.4883C6.82776 16.7567 6.81369 16.0181 6.79259 15.2864ZM2.33954 27.5481C2.33954 25.8176 2.33954 24.087 2.33954 22.3564C2.33954 20.8791 3.15558 20.056 4.61882 20.056C11.2597 20.056 17.9076 20.0561 24.5485 20.049C24.9635 20.049 25.1324 20.1264 25.2027 20.5837C25.7092 23.6931 26.6167 26.6758 27.9674 29.5249C28.0096 29.6234 28.0448 29.7219 28.1151 29.9259H27.3976C19.8422 29.9259 12.2938 29.9259 4.73842 29.9259C3.13448 29.9259 2.33251 29.138 2.32547 27.5552L2.33954 27.5481ZM6.78555 32.7047C6.73631 32.1559 6.877 31.973 7.47496 31.9801C9.83163 32.0223 12.1953 31.9941 14.552 31.9941C19.2302 31.9941 23.9013 32.0012 28.5794 31.9801C29.107 31.9801 29.3744 32.1559 29.6276 32.5991C30.106 33.4363 30.6617 34.2312 31.2316 35.1246C26.3916 35.1246 21.6572 35.1246 16.9157 35.1246C13.7782 35.1246 10.6406 35.1035 7.5031 35.1387C6.88404 35.1457 6.73631 34.9488 6.77852 34.386C6.82072 33.8302 6.82776 33.2604 6.77852 32.6976L6.78555 32.7047ZM37.8443 44.9171C37.8091 46.2748 36.986 47.0768 35.6283 47.0838C30.4366 47.0838 25.2379 47.0838 20.0462 47.0838C14.96 47.0838 9.87384 47.0838 4.78766 47.0838C3.0993 47.0838 2.33954 46.317 2.33954 44.6217C2.33954 42.9333 2.33954 41.2449 2.33954 39.5566C2.33954 38.0089 3.15558 37.214 4.71731 37.214C13.9118 37.214 23.1134 37.214 32.3079 37.2069C32.73 37.2069 33.0254 37.3054 33.3068 37.6361C34.545 39.0852 35.9308 40.3937 37.4222 41.5826C37.7458 41.8429 37.8724 42.1032 37.8584 42.5112C37.8302 43.3132 37.8584 44.1151 37.8443 44.9101V44.9171ZM58.597 19.8028C57.6895 25.8105 55.2555 31.1289 51.3512 35.7718C49.093 38.4591 46.4479 40.7033 43.451 42.5323C43.043 42.7785 42.7546 42.7856 42.3466 42.5323C34.1018 37.3687 29.093 30.0033 27.271 20.457C27.1373 19.7676 27.2569 19.2822 27.7986 18.7616C29.304 17.3054 30.4366 15.5678 31.2808 13.6473C31.4356 13.2885 31.6396 13.1056 32.0335 13.0634C35.6494 12.6836 39.2724 12.4584 42.9234 12.4936C46.5604 12.4584 50.2045 12.6906 53.8415 13.0634C54.151 13.0986 54.341 13.2182 54.4746 13.5137C55.4102 15.6593 56.7187 17.5517 58.4071 19.1767C58.597 19.3596 58.6463 19.5284 58.6041 19.8028H58.597Z" fill="white"/>
<path id="Vector_4" d="M32.8218 8.86355C33.4197 8.84948 33.8559 8.35704 33.8418 7.80833C33.8348 7.25258 33.3986 6.82345 32.7866 6.80235C32.2238 6.78124 31.661 6.80235 31.0983 6.80235C30.5777 6.80235 30.0641 6.80235 29.5436 6.80235C29.5014 6.80235 29.4591 6.80235 29.4169 6.80235C28.7908 6.84456 28.3898 7.23851 28.3828 7.81536C28.3828 8.39222 28.7697 8.84948 29.3888 8.86355C30.5355 8.89873 31.6821 8.89169 32.8218 8.86355Z" fill="white"/>
<path id="Vector_5" d="M7.25672 41.097C6.59545 41.0829 6.09598 41.5191 6.08894 42.1241C6.08191 42.7291 6.56731 43.1793 7.22858 43.1793C7.88282 43.1793 8.37526 42.7221 8.36119 42.1171C8.34712 41.5402 7.87579 41.104 7.24969 41.097H7.25672Z" fill="white"/>
<path id="Vector_6" d="M18.0275 41.097C17.3591 41.0829 16.8737 41.5121 16.8597 42.1171C16.8456 42.7221 17.324 43.1723 17.9853 43.1793C18.6465 43.1793 19.1249 42.7361 19.1179 42.1241C19.1108 41.5402 18.6536 41.1111 18.0275 41.097Z" fill="white"/>
<path id="Vector_7" d="M12.5824 41.097C11.9493 41.1111 11.499 41.5332 11.499 42.1241C11.499 42.7432 11.9633 43.1793 12.6246 43.1793C13.2929 43.1793 13.7572 42.7361 13.7502 42.1171C13.7361 41.505 13.2577 41.083 12.5894 41.097H12.5824Z" fill="white"/>
<path id="Vector_8" d="M18.0555 6.80257C17.3731 6.78146 16.8877 7.17541 16.8596 7.78744C16.8314 8.3854 17.3098 8.8708 17.957 8.88487C18.6113 8.89894 19.1037 8.46279 19.1178 7.85076C19.1318 7.25983 18.6886 6.82367 18.0555 6.80257Z" fill="white"/>
<path id="Vector_9" d="M7.19362 6.80273C6.56049 6.80977 6.09619 7.23186 6.08915 7.81575C6.07508 8.40667 6.58159 8.88504 7.22176 8.88504C7.86193 8.88504 8.36844 8.41371 8.3614 7.82278C8.35437 7.21779 7.86193 6.7957 7.19362 6.80977V6.80273Z" fill="white"/>
<path id="Vector_10" d="M12.5754 6.80211C11.9281 6.81618 11.499 7.2242 11.499 7.82919C11.499 8.44826 11.9704 8.89145 12.6316 8.88442C13.2788 8.88442 13.7642 8.42012 13.7502 7.80809C13.7361 7.19606 13.2648 6.78804 12.5824 6.80211H12.5754Z" fill="white"/>
<path id="Vector_11" d="M7.18637 26.0287C7.84061 26.0427 8.34712 25.5995 8.36119 25.0086C8.37526 24.4318 7.91799 23.9745 7.29189 23.9534C6.59545 23.9253 6.0819 24.3755 6.08894 25.0016C6.08894 25.5784 6.5673 26.0216 7.18637 26.0357V26.0287Z" fill="white"/>
<path id="Vector_12" d="M18.0275 26.0285C18.6536 26.0144 19.1108 25.5853 19.1179 25.0014C19.1249 24.3894 18.6536 23.9462 17.9853 23.9532C17.3169 23.9532 16.8456 24.3964 16.8597 25.0084C16.8738 25.6134 17.3662 26.0496 18.0275 26.0355V26.0285Z" fill="white"/>
<path id="Vector_13" d="M12.5685 26.0285C13.2298 26.0496 13.7222 25.6275 13.7433 25.0225C13.7644 24.4034 13.3072 23.9602 12.6318 23.9532C11.9565 23.9462 11.4922 24.3612 11.4922 24.9873C11.4922 25.5853 11.9283 26.0074 12.5615 26.0285H12.5685Z" fill="white"/>
</g>
</g>
</svg>
